<svg xmlns="http://www.w3.org/2000/svg" xmlns:xlink="http://www.w3.org/1999/xlink" width="1080" zoomAndPan="magnify" viewBox="0 0 810 809.999993" height="1080" preserveAspectRatio="xMidYMid meet" version="1.0"><defs><g/><clipPath id="c9ce054b67"><path d="M 59.25 329.8125 L 275.25 329.8125 L 275.25 479.8125 L 59.25 479.8125 Z M 59.25 329.8125 " clip-rule="nonzero"/></clipPath></defs><g clip-path="url(#c9ce054b67)"><path fill="#1a5785" d="M 59.242188 418.039062 C 59.242188 394.027344 76.195312 385.324219 98.816406 380.472656 C 103.070312 351.835938 127.816406 329.867188 157.707031 329.867188 C 175.613281 329.867188 191.675781 337.75 202.589844 350.226562 C 207.503906 348.625 212.75 347.753906 218.199219 347.753906 C 245.917969 347.753906 268.390625 370.164062 268.390625 397.804688 C 268.390625 400.238281 268.210938 402.628906 267.875 404.96875 C 272.554688 412.441406 275.257812 421.269531 275.257812 430.730469 C 275.257812 457.375 253.265625 479.726562 226.367188 479.445312 L 185.789062 479.445312 C 154.371094 479.445312 135.246094 457.386719 162.613281 433.273438 L 176.125 421.371094 L 199.847656 468.816406 L 203.675781 465.640625 C 205.636719 464.015625 205 460.660156 204.289062 458.027344 L 196.269531 427.613281 C 196.351562 427.550781 196.429688 427.484375 196.503906 427.40625 L 205.972656 417.964844 C 206.902344 417.042969 206.898438 415.53125 205.972656 414.609375 L 202.324219 410.96875 C 201.398438 410.046875 199.886719 410.046875 198.960938 410.96875 L 193.355469 416.558594 L 191.308594 408.792969 L 212.140625 391.53125 C 216.847656 387.628906 219.335938 379.335938 213.441406 373.246094 C 207.332031 367.367188 199.019531 369.847656 195.105469 374.542969 L 177.796875 395.320312 L 170.011719 393.277344 L 175.613281 387.6875 C 176.542969 386.765625 176.539062 385.253906 175.613281 384.332031 L 171.964844 380.691406 C 171.039062 379.769531 169.527344 379.769531 168.601562 380.691406 L 159.128906 390.136719 C 159.054688 390.210938 158.984375 390.289062 158.925781 390.367188 L 128.425781 382.371094 C 125.785156 381.664062 122.421875 381.027344 120.789062 382.984375 L 117.609375 386.804688 L 165.183594 410.464844 L 153.042969 424.167969 C 126.863281 453.710938 59.242188 472.53125 59.242188 418.039062 " fill-opacity="1" fill-rule="evenodd"/></g><g fill="#1a5785" fill-opacity="1"><g transform="translate(283.887688, 409.681875)"><g><path d="M 32.53125 0 L 16.53125 0 L 16.53125 -46.15625 L 2.0625 -46.15625 L 2.0625 -59.234375 L 46.96875 -59.234375 L 46.96875 -46.15625 L 32.53125 -46.15625 Z M 32.53125 0 "/></g></g><g transform="translate(332.913955, 409.681875)"><g><path d="M 22.40625 -21.5625 L 22.40625 0 L 6.40625 0 L 6.40625 -59.234375 L 25.8125 -59.234375 C 41.90625 -59.234375 49.953125 -53.398438 49.953125 -41.734375 C 49.953125 -34.867188 46.601562 -29.5625 39.90625 -25.8125 L 57.171875 0 L 39.015625 0 L 26.453125 -21.5625 Z M 22.40625 -33.59375 L 25.40625 -33.59375 C 31 -33.59375 33.796875 -36.0625 33.796875 -41 C 33.796875 -45.082031 31.050781 -47.125 25.5625 -47.125 L 22.40625 -47.125 Z M 22.40625 -33.59375 "/></g></g><g transform="translate(389.071315, 409.681875)"><g><path d="M 42.75 0 L 39.828125 -11.109375 L 20.578125 -11.109375 L 17.578125 0 L 0 0 L 19.328125 -59.484375 L 40.6875 -59.484375 L 60.25 0 Z M 36.515625 -24.234375 L 33.953125 -33.953125 C 33.359375 -36.117188 32.632812 -38.914062 31.78125 -42.34375 C 30.9375 -45.769531 30.378906 -48.226562 30.109375 -49.71875 C 29.859375 -48.34375 29.375 -46.070312 28.65625 -42.90625 C 27.945312 -39.75 26.363281 -33.523438 23.90625 -24.234375 Z M 36.515625 -24.234375 "/></g></g><g transform="translate(449.320951, 409.681875)"><g><path d="M 39.671875 -59.234375 L 57.578125 -59.234375 L 38.171875 0 L 19.328125 0 L 0 -59.234375 L 17.984375 -59.234375 L 26.046875 -29.21875 C 27.722656 -22.539062 28.644531 -17.894531 28.8125 -15.28125 C 29 -17.164062 29.375 -19.523438 29.9375 -22.359375 C 30.507812 -25.203125 31.007812 -27.429688 31.4375 -29.046875 Z M 39.671875 -59.234375 "/></g></g><g transform="translate(506.896427, 409.681875)"><g><path d="M 41.578125 0 L 6.40625 0 L 6.40625 -59.234375 L 41.578125 -59.234375 L 41.578125 -46.390625 L 22.40625 -46.390625 L 22.40625 -37.078125 L 40.15625 -37.078125 L 40.15625 -24.234375 L 22.40625 -24.234375 L 22.40625 -13.046875 L 41.578125 -13.046875 Z M 41.578125 0 "/></g></g><g transform="translate(552.438183, 409.681875)"><g><path d="M 6.40625 0 L 6.40625 -59.234375 L 22.40625 -59.234375 L 22.40625 -12.921875 L 45.21875 -12.921875 L 45.21875 0 Z M 6.40625 0 "/></g></g><g transform="translate(600.735134, 409.681875)"><g><path d="M 6.40625 0 L 6.40625 -59.234375 L 22.40625 -59.234375 L 22.40625 -12.921875 L 45.21875 -12.921875 L 45.21875 0 Z M 6.40625 0 "/></g></g><g transform="translate(649.032084, 409.681875)"><g><path d="M 41.578125 0 L 6.40625 0 L 6.40625 -59.234375 L 41.578125 -59.234375 L 41.578125 -46.390625 L 22.40625 -46.390625 L 22.40625 -37.078125 L 40.15625 -37.078125 L 40.15625 -24.234375 L 22.40625 -24.234375 L 22.40625 -13.046875 L 41.578125 -13.046875 Z M 41.578125 0 "/></g></g><g transform="translate(694.57384, 409.681875)"><g><path d="M 22.40625 -21.5625 L 22.40625 0 L 6.40625 0 L 6.40625 -59.234375 L 25.8125 -59.234375 C 41.90625 -59.234375 49.953125 -53.398438 49.953125 -41.734375 C 49.953125 -34.867188 46.601562 -29.5625 39.90625 -25.8125 L 57.171875 0 L 39.015625 0 L 26.453125 -21.5625 Z M 22.40625 -33.59375 L 25.40625 -33.59375 C 31 -33.59375 33.796875 -36.0625 33.796875 -41 C 33.796875 -45.082031 31.050781 -47.125 25.5625 -47.125 L 22.40625 -47.125 Z M 22.40625 -33.59375 "/></g></g></g><g fill="#1a5785" fill-opacity="1"><g transform="translate(437.056856, 450.941265)"><g><path d="M 8.3125 -9.234375 L 14.84375 -9.234375 L 14.84375 -0.703125 C 13.78125 -0.359375 12.78125 -0.117188 11.84375 0.015625 C 10.914062 0.148438 9.960938 0.21875 8.984375 0.21875 C 6.503906 0.21875 4.609375 -0.507812 3.296875 -1.96875 C 1.992188 -3.425781 1.34375 -5.519531 1.34375 -8.25 C 1.34375 -10.90625 2.097656 -12.972656 3.609375 -14.453125 C 5.128906 -15.941406 7.238281 -16.6875 9.9375 -16.6875 C 11.625 -16.6875 13.253906 -16.347656 14.828125 -15.671875 L 13.65625 -12.890625 C 12.457031 -13.484375 11.210938 -13.78125 9.921875 -13.78125 C 8.410156 -13.78125 7.195312 -13.273438 6.28125 -12.265625 C 5.375 -11.253906 4.921875 -9.894531 4.921875 -8.1875 C 4.921875 -6.394531 5.285156 -5.023438 6.015625 -4.078125 C 6.753906 -3.140625 7.820312 -2.671875 9.21875 -2.671875 C 9.945312 -2.671875 10.6875 -2.75 11.4375 -2.90625 L 11.4375 -6.328125 L 8.3125 -6.328125 Z M 8.3125 -9.234375 "/></g></g></g><g fill="#1a5785" fill-opacity="1"><g transform="translate(459.365694, 450.941265)"><g><path d="M 15.46875 -16.453125 L 15.46875 -5.8125 C 15.46875 -4.59375 15.191406 -3.523438 14.640625 -2.609375 C 14.097656 -1.691406 13.3125 -0.988281 12.28125 -0.5 C 11.257812 -0.0195312 10.046875 0.21875 8.640625 0.21875 C 6.523438 0.21875 4.878906 -0.320312 3.703125 -1.40625 C 2.535156 -2.488281 1.953125 -3.972656 1.953125 -5.859375 L 1.953125 -16.453125 L 5.4375 -16.453125 L 5.4375 -6.375 C 5.4375 -5.113281 5.691406 -4.1875 6.203125 -3.59375 C 6.710938 -3 7.554688 -2.703125 8.734375 -2.703125 C 9.867188 -2.703125 10.691406 -3 11.203125 -3.59375 C 11.722656 -4.1875 11.984375 -5.125 11.984375 -6.40625 L 11.984375 -16.453125 Z M 15.46875 -16.453125 "/></g></g></g><g fill="#1a5785" fill-opacity="1"><g transform="translate(482.4058, 450.941265)"><g><path d="M 2.078125 0 L 2.078125 -16.453125 L 5.5625 -16.453125 L 5.5625 -2.875 L 12.234375 -2.875 L 12.234375 0 Z M 2.078125 0 "/></g></g></g><g fill="#1a5785" fill-opacity="1"><g transform="translate(501.046981, 450.941265)"><g><path d="M 2.078125 0 L 2.078125 -16.453125 L 5.5625 -16.453125 L 5.5625 -2.875 L 12.234375 -2.875 L 12.234375 0 Z M 2.078125 0 "/></g></g></g><g fill="#1a5785" fill-opacity="1"><g transform="translate(519.688159, 450.941265)"><g><path d="M 2.078125 0 L 2.078125 -16.453125 L 5.5625 -16.453125 L 5.5625 0 Z M 2.078125 0 "/></g></g></g><g fill="#1a5785" fill-opacity="1"><g transform="translate(532.940341, 450.941265)"><g><path d="M 11.453125 -16.453125 L 14.984375 -16.453125 L 9.390625 0 L 5.578125 0 L 0 -16.453125 L 3.515625 -16.453125 L 6.609375 -6.65625 C 6.785156 -6.082031 6.960938 -5.410156 7.140625 -4.640625 C 7.328125 -3.867188 7.445312 -3.332031 7.5 -3.03125 C 7.582031 -3.726562 7.863281 -4.9375 8.34375 -6.65625 Z M 11.453125 -16.453125 "/></g></g></g><g fill="#1a5785" fill-opacity="1"><g transform="translate(553.53911, 450.941265)"><g><path d="M 11.546875 0 L 2.078125 0 L 2.078125 -16.453125 L 11.546875 -16.453125 L 11.546875 -13.59375 L 5.5625 -13.59375 L 5.5625 -9.984375 L 11.125 -9.984375 L 11.125 -7.125 L 5.5625 -7.125 L 5.5625 -2.875 L 11.546875 -2.875 Z M 11.546875 0 "/></g></g></g><g fill="#1a5785" fill-opacity="1"><g transform="translate(572.06779, 450.941265)"><g><path d="M 5.5625 -9.15625 L 6.6875 -9.15625 C 7.789062 -9.15625 8.601562 -9.335938 9.125 -9.703125 C 9.65625 -10.066406 9.921875 -10.644531 9.921875 -11.4375 C 9.921875 -12.21875 9.648438 -12.769531 9.109375 -13.09375 C 8.578125 -13.425781 7.742188 -13.59375 6.609375 -13.59375 L 5.5625 -13.59375 Z M 5.5625 -6.3125 L 5.5625 0 L 2.078125 0 L 2.078125 -16.453125 L 6.859375 -16.453125 C 9.097656 -16.453125 10.753906 -16.046875 11.828125 -15.234375 C 12.898438 -14.421875 13.4375 -13.1875 13.4375 -11.53125 C 13.4375 -10.5625 13.171875 -9.695312 12.640625 -8.9375 C 12.109375 -8.1875 11.351562 -7.597656 10.375 -7.171875 C 12.851562 -3.472656 14.46875 -1.082031 15.21875 0 L 11.34375 0 L 7.421875 -6.3125 Z M 5.5625 -6.3125 "/></g></g></g></svg>