<svg xmlns="http://www.w3.org/2000/svg" xmlns:xlink="http://www.w3.org/1999/xlink" width="1080" zoomAndPan="magnify" viewBox="0 0 810 809.999993" height="1080" preserveAspectRatio="xMidYMid meet" version="1.0"><defs><clipPath id="9789b2d0a7"><path d="M 81 179.378906 L 729 179.378906 L 729 630 L 81 630 Z M 81 179.378906 " clip-rule="nonzero"/></clipPath></defs><g clip-path="url(#9789b2d0a7)"><path fill="#1a5785" d="M 80.972656 444.9375 C 80.972656 372.667969 131.835938 346.472656 199.699219 331.855469 C 212.460938 245.671875 286.695312 179.539062 376.375 179.539062 C 430.09375 179.539062 478.273438 203.273438 511.015625 240.828125 C 525.757812 236.003906 541.5 233.378906 557.851562 233.378906 C 641.007812 233.378906 708.417969 300.832031 708.417969 384.035156 C 708.417969 391.351562 707.882812 398.550781 706.875 405.59375 C 720.910156 428.089844 729.027344 454.660156 729.027344 483.132812 C 729.027344 563.339844 663.042969 630.609375 582.347656 629.769531 L 460.617188 629.769531 C 366.363281 629.769531 308.988281 563.378906 391.085938 490.796875 L 431.621094 454.964844 L 502.789062 597.773438 L 514.273438 588.222656 C 520.164062 583.324219 518.246094 573.226562 516.121094 565.304688 L 492.058594 473.753906 C 492.304688 473.566406 492.542969 473.363281 492.761719 473.136719 L 521.171875 444.710938 C 523.953125 441.933594 523.949219 437.390625 521.171875 434.609375 L 510.226562 423.65625 C 507.449219 420.875 502.90625 420.875 500.132812 423.65625 L 483.316406 440.476562 L 477.171875 417.101562 L 539.671875 365.144531 C 553.792969 353.398438 561.257812 328.445312 543.578125 310.109375 C 525.242188 292.417969 500.308594 299.882812 488.570312 314.015625 L 436.644531 376.550781 L 413.28125 370.402344 L 430.09375 353.578125 C 432.871094 350.800781 432.867188 346.257812 430.09375 343.476562 L 419.148438 332.523438 C 416.367188 329.746094 411.824219 329.746094 409.050781 332.523438 L 380.640625 360.949219 C 380.414062 361.171875 380.207031 361.410156 380.023438 361.648438 L 288.527344 337.574219 C 280.605469 335.453125 270.515625 333.527344 265.621094 339.421875 L 256.078125 350.917969 L 398.796875 422.132812 L 362.375 463.382812 C 283.839844 552.304688 80.972656 608.957031 80.972656 444.9375 " fill-opacity="1" fill-rule="evenodd"/></g></svg>