<svg xmlns="http://www.w3.org/2000/svg" xmlns:xlink="http://www.w3.org/1999/xlink" width="500" zoomAndPan="magnify" viewBox="0 0 375 374.999991" height="500" preserveAspectRatio="xMidYMid meet" version="1.0"><defs><g/><clipPath id="4ad3feddbf"><path d="M 37.5 154.882812 L 131.25 154.882812 L 131.25 220 L 37.5 220 Z M 37.5 154.882812 " clip-rule="nonzero"/></clipPath></defs><g clip-path="url(#4ad3feddbf)"><path fill="#1a5785" d="M 37.496094 193.261719 C 37.496094 182.8125 44.855469 179.027344 54.671875 176.914062 C 56.519531 164.457031 67.257812 154.902344 80.234375 154.902344 C 88.003906 154.902344 94.976562 158.332031 99.714844 163.757812 C 101.84375 163.0625 104.125 162.683594 106.488281 162.683594 C 118.519531 162.683594 128.273438 172.429688 128.273438 184.457031 C 128.273438 185.515625 128.195312 186.554688 128.050781 187.574219 C 130.078125 190.824219 131.253906 194.664062 131.253906 198.78125 C 131.253906 210.375 121.707031 220.097656 110.03125 219.976562 L 92.421875 219.976562 C 78.785156 219.976562 70.484375 210.378906 82.363281 199.886719 L 88.226562 194.710938 L 98.523438 215.351562 L 100.183594 213.96875 C 101.035156 213.261719 100.757812 211.804688 100.453125 210.65625 L 96.96875 197.425781 C 97.003906 197.398438 97.039062 197.367188 97.070312 197.335938 L 101.183594 193.226562 C 101.585938 192.824219 101.582031 192.167969 101.183594 191.765625 L 99.597656 190.183594 C 99.195312 189.78125 98.539062 189.78125 98.136719 190.183594 L 95.707031 192.617188 L 94.816406 189.238281 L 103.859375 181.726562 C 105.902344 180.03125 106.980469 176.421875 104.421875 173.773438 C 101.769531 171.214844 98.164062 172.292969 96.464844 174.335938 L 88.953125 183.375 L 85.574219 182.488281 L 88.003906 180.054688 C 88.40625 179.652344 88.40625 178.996094 88.003906 178.59375 L 86.421875 177.011719 C 86.019531 176.609375 85.363281 176.609375 84.960938 177.011719 L 80.851562 181.121094 C 80.816406 181.152344 80.789062 181.1875 80.761719 181.222656 L 67.523438 177.742188 C 66.378906 177.433594 64.917969 177.15625 64.210938 178.007812 L 62.828125 179.671875 L 83.476562 189.964844 L 78.207031 195.925781 C 66.847656 208.777344 37.496094 216.964844 37.496094 193.261719 " fill-opacity="1" fill-rule="evenodd"/></g><g fill="#1a5785" fill-opacity="1"><g transform="translate(134.956694, 189.53117)"><g><path d="M 14.109375 0 L 7.171875 0 L 7.171875 -20.015625 L 0.890625 -20.015625 L 0.890625 -25.703125 L 20.375 -25.703125 L 20.375 -20.015625 L 14.109375 -20.015625 Z M 14.109375 0 "/></g></g><g transform="translate(156.226224, 189.53117)"><g><path d="M 9.71875 -9.359375 L 9.71875 0 L 2.78125 0 L 2.78125 -25.703125 L 11.203125 -25.703125 C 18.179688 -25.703125 21.671875 -23.171875 21.671875 -18.109375 C 21.671875 -15.128906 20.21875 -12.828125 17.3125 -11.203125 L 24.796875 0 L 16.921875 0 L 11.484375 -9.359375 Z M 9.71875 -14.578125 L 11.015625 -14.578125 C 13.441406 -14.578125 14.65625 -15.648438 14.65625 -17.796875 C 14.65625 -19.554688 13.46875 -20.4375 11.09375 -20.4375 L 9.71875 -20.4375 Z M 9.71875 -14.578125 "/></g></g><g transform="translate(180.589503, 189.53117)"><g><path d="M 18.546875 0 L 17.28125 -4.8125 L 8.9375 -4.8125 L 7.625 0 L 0 0 L 8.390625 -25.8125 L 17.65625 -25.8125 L 26.140625 0 Z M 15.84375 -10.515625 L 14.734375 -14.734375 C 14.472656 -15.671875 14.15625 -16.882812 13.78125 -18.375 C 13.414062 -19.863281 13.175781 -20.925781 13.0625 -21.5625 C 12.957031 -20.96875 12.75 -19.984375 12.4375 -18.609375 C 12.125 -17.242188 11.4375 -14.546875 10.375 -10.515625 Z M 15.84375 -10.515625 "/></g></g><g transform="translate(206.728173, 189.53117)"><g><path d="M 17.203125 -25.703125 L 24.984375 -25.703125 L 16.5625 0 L 8.390625 0 L 0 -25.703125 L 7.8125 -25.703125 L 11.296875 -12.671875 C 12.023438 -9.773438 12.425781 -7.757812 12.5 -6.625 C 12.582031 -7.445312 12.742188 -8.472656 12.984375 -9.703125 C 13.234375 -10.929688 13.453125 -11.898438 13.640625 -12.609375 Z M 17.203125 -25.703125 "/></g></g><g transform="translate(231.706688, 189.53117)"><g><path d="M 18.03125 0 L 2.78125 0 L 2.78125 -25.703125 L 18.03125 -25.703125 L 18.03125 -20.125 L 9.71875 -20.125 L 9.71875 -16.078125 L 17.421875 -16.078125 L 17.421875 -10.515625 L 9.71875 -10.515625 L 9.71875 -5.65625 L 18.03125 -5.65625 Z M 18.03125 0 "/></g></g><g transform="translate(251.464499, 189.53117)"><g><path d="M 2.78125 0 L 2.78125 -25.703125 L 9.71875 -25.703125 L 9.71875 -5.609375 L 19.625 -5.609375 L 19.625 0 Z M 2.78125 0 "/></g></g><g transform="translate(272.417623, 189.53117)"><g><path d="M 2.78125 0 L 2.78125 -25.703125 L 9.71875 -25.703125 L 9.71875 -5.609375 L 19.625 -5.609375 L 19.625 0 Z M 2.78125 0 "/></g></g><g transform="translate(293.370746, 189.53117)"><g><path d="M 18.03125 0 L 2.78125 0 L 2.78125 -25.703125 L 18.03125 -25.703125 L 18.03125 -20.125 L 9.71875 -20.125 L 9.71875 -16.078125 L 17.421875 -16.078125 L 17.421875 -10.515625 L 9.71875 -10.515625 L 9.71875 -5.65625 L 18.03125 -5.65625 Z M 18.03125 0 "/></g></g><g transform="translate(313.128558, 189.53117)"><g><path d="M 9.71875 -9.359375 L 9.71875 0 L 2.78125 0 L 2.78125 -25.703125 L 11.203125 -25.703125 C 18.179688 -25.703125 21.671875 -23.171875 21.671875 -18.109375 C 21.671875 -15.128906 20.21875 -12.828125 17.3125 -11.203125 L 24.796875 0 L 16.921875 0 L 11.484375 -9.359375 Z M 9.71875 -14.578125 L 11.015625 -14.578125 C 13.441406 -14.578125 14.65625 -15.648438 14.65625 -17.796875 C 14.65625 -19.554688 13.46875 -20.4375 11.09375 -20.4375 L 9.71875 -20.4375 Z M 9.71875 -14.578125 "/></g></g></g><g fill="#1a5785" fill-opacity="1"><g transform="translate(201.407525, 207.431134)"><g><path d="M 3.609375 -4.015625 L 6.4375 -4.015625 L 6.4375 -0.3125 C 5.976562 -0.15625 5.546875 -0.0507812 5.140625 0 C 4.734375 0.0625 4.320312 0.09375 3.90625 0.09375 C 2.820312 0.09375 1.992188 -0.21875 1.421875 -0.84375 C 0.859375 -1.476562 0.578125 -2.390625 0.578125 -3.578125 C 0.578125 -4.734375 0.90625 -5.628906 1.5625 -6.265625 C 2.226562 -6.910156 3.144531 -7.234375 4.3125 -7.234375 C 5.039062 -7.234375 5.75 -7.085938 6.4375 -6.796875 L 5.921875 -5.59375 C 5.398438 -5.851562 4.859375 -5.984375 4.296875 -5.984375 C 3.648438 -5.984375 3.128906 -5.757812 2.734375 -5.3125 C 2.335938 -4.875 2.140625 -4.285156 2.140625 -3.546875 C 2.140625 -2.773438 2.296875 -2.179688 2.609375 -1.765625 C 2.929688 -1.359375 3.394531 -1.15625 4 -1.15625 C 4.3125 -1.15625 4.632812 -1.191406 4.96875 -1.265625 L 4.96875 -2.75 L 3.609375 -2.75 Z M 3.609375 -4.015625 "/></g></g></g><g fill="#1a5785" fill-opacity="1"><g transform="translate(211.085979, 207.431134)"><g><path d="M 6.703125 -7.140625 L 6.703125 -2.515625 C 6.703125 -1.992188 6.582031 -1.53125 6.34375 -1.125 C 6.113281 -0.726562 5.773438 -0.425781 5.328125 -0.21875 C 4.878906 -0.0078125 4.351562 0.09375 3.75 0.09375 C 2.832031 0.09375 2.117188 -0.140625 1.609375 -0.609375 C 1.097656 -1.078125 0.84375 -1.722656 0.84375 -2.546875 L 0.84375 -7.140625 L 2.359375 -7.140625 L 2.359375 -2.765625 C 2.359375 -2.210938 2.46875 -1.804688 2.6875 -1.546875 C 2.90625 -1.296875 3.273438 -1.171875 3.796875 -1.171875 C 4.285156 -1.171875 4.640625 -1.300781 4.859375 -1.5625 C 5.085938 -1.820312 5.203125 -2.226562 5.203125 -2.78125 L 5.203125 -7.140625 Z M 6.703125 -7.140625 "/></g></g></g><g fill="#1a5785" fill-opacity="1"><g transform="translate(221.081687, 207.431134)"><g><path d="M 0.90625 0 L 0.90625 -7.140625 L 2.40625 -7.140625 L 2.40625 -1.25 L 5.3125 -1.25 L 5.3125 0 Z M 0.90625 0 "/></g></g></g><g fill="#1a5785" fill-opacity="1"><g transform="translate(229.168967, 207.431134)"><g><path d="M 0.90625 0 L 0.90625 -7.140625 L 2.40625 -7.140625 L 2.40625 -1.25 L 5.3125 -1.25 L 5.3125 0 Z M 0.90625 0 "/></g></g></g><g fill="#1a5785" fill-opacity="1"><g transform="translate(237.256246, 207.431134)"><g><path d="M 0.90625 0 L 0.90625 -7.140625 L 2.40625 -7.140625 L 2.40625 0 Z M 0.90625 0 "/></g></g></g><g fill="#1a5785" fill-opacity="1"><g transform="translate(243.005566, 207.431134)"><g><path d="M 4.96875 -7.140625 L 6.5 -7.140625 L 4.078125 0 L 2.421875 0 L 0 -7.140625 L 1.53125 -7.140625 L 2.875 -2.890625 C 2.945312 -2.640625 3.019531 -2.347656 3.09375 -2.015625 C 3.175781 -1.679688 3.226562 -1.445312 3.25 -1.3125 C 3.289062 -1.613281 3.414062 -2.140625 3.625 -2.890625 Z M 4.96875 -7.140625 "/></g></g></g><g fill="#1a5785" fill-opacity="1"><g transform="translate(251.942125, 207.431134)"><g><path d="M 5.015625 0 L 0.90625 0 L 0.90625 -7.140625 L 5.015625 -7.140625 L 5.015625 -5.90625 L 2.40625 -5.90625 L 2.40625 -4.328125 L 4.828125 -4.328125 L 4.828125 -3.09375 L 2.40625 -3.09375 L 2.40625 -1.25 L 5.015625 -1.25 Z M 5.015625 0 "/></g></g></g><g fill="#1a5785" fill-opacity="1"><g transform="translate(259.980597, 207.431134)"><g><path d="M 2.40625 -3.96875 L 2.90625 -3.96875 C 3.382812 -3.96875 3.734375 -4.046875 3.953125 -4.203125 C 4.179688 -4.367188 4.296875 -4.625 4.296875 -4.96875 C 4.296875 -5.300781 4.179688 -5.539062 3.953125 -5.6875 C 3.722656 -5.832031 3.363281 -5.90625 2.875 -5.90625 L 2.40625 -5.90625 Z M 2.40625 -2.734375 L 2.40625 0 L 0.90625 0 L 0.90625 -7.140625 L 2.984375 -7.140625 C 3.953125 -7.140625 4.664062 -6.960938 5.125 -6.609375 C 5.59375 -6.253906 5.828125 -5.71875 5.828125 -5 C 5.828125 -4.582031 5.710938 -4.207031 5.484375 -3.875 C 5.253906 -3.550781 4.925781 -3.296875 4.5 -3.109375 C 5.570312 -1.503906 6.273438 -0.46875 6.609375 0 L 4.921875 0 L 3.21875 -2.734375 Z M 2.40625 -2.734375 "/></g></g></g></svg>